<?xml version="1.0" encoding="utf-8"?>
<!-- Generator: Adobe Illustrator 22.0.1, SVG Export Plug-In . SVG Version: 6.00 Build 0)  -->
<svg version="1.1" id="Capa_1" xmlns="http://www.w3.org/2000/svg" xmlns:xlink="http://www.w3.org/1999/xlink" x="0px" y="0px"
	 viewBox="0 0 472 192" style="enable-background:new 0 0 472 192;" xml:space="preserve">
<style type="text/css">
	.st0{fill:#FFFFFF;}
</style>
<g>
	<g>
		<g>
			<path class="st0" d="M195.2,61c9.4,0,16.6,7.2,16.6,16.5c0,4-1.5,7.8-3.8,10.6l3.7,3.6l-2.7,2.9l-3.7-3.7
				c-2.8,2.2-6.3,3.4-10.1,3.4c-9.3,0-16.5-7.4-16.5-16.9C178.7,68.2,185.8,61,195.2,61z M195.2,90.1c4.3,0,6.8-2.2,6.8-2.2
				l-3.6-3.5l2.7-3l3.5,3.6c1.5-2,2.4-4.7,2.4-7.5c0-7-5.2-12.2-11.9-12.2c-6.6,0-11.7,5.2-11.7,12.2
				C183.4,84.6,188.6,90.1,195.2,90.1z"/>
			<path class="st0" d="M217.7,66.5c0-0.7-0.4-1-1-1h-2v-3.9h4.6c2.1,0,2.9,0.9,2.9,2.9v17.9c0,4.8,3.1,7.7,7.7,7.7
				c4.7,0,7.7-2.9,7.7-7.8V64.5c0-2.1,0.9-2.9,3-2.9h4.6v3.9h-2c-0.6,0-1,0.3-1,1v16c0,7-4.9,11.8-12.3,11.8
				c-7.4,0-12.3-4.8-12.3-11.8V66.5z"/>
			<path class="st0" d="M248.6,89.9h3.2V65.5h-3.2v-3.9h10.7v3.9h-3.2v24.4h3.2v3.9h-10.7V89.9z"/>
			<path class="st0" d="M262.9,89.9h2c0.6,0,1-0.4,1-1V61.5h4.2L284.4,82c1.2,1.7,2.7,4.4,2.7,4.4h0.1c0,0-0.3-2.6-0.3-4.4V64.5
				c0-2.1,0.9-2.9,3-2.9h4.6v3.9h-2c-0.6,0-1,0.3-1,1v27.3h-4.1l-14.4-20.4c-1.2-1.7-2.7-4.4-2.7-4.4h-0.1c0,0,0.3,2.6,0.3,4.4v17.5
				c0,2.1-0.9,2.9-2.9,2.9h-4.6V89.9z"/>
			<path class="st0" d="M308.4,65.5h-6.5c-0.6,0-1,0.3-1,1v2.1h-4.1v-4.2c0-2.1,0.7-2.7,2.7-2.7h22.2c2.1,0,2.7,0.7,2.7,2.7v4.2
				h-4.1v-2.1c0-0.7-0.4-1-1-1h-6.5v28.3h-4.6V65.5z"/>
			<path class="st0" d="M321.8,89.9h0.6c0.8,0,1.2-0.2,1.5-1l10.1-27.3h4.8L349,88.9c0.3,0.8,0.7,1,1.5,1h0.7v3.9h-2.6
				c-2.3,0-3-0.6-3.7-2.7l-2.4-6.6h-11.9l-2.4,6.6c-0.8,2.1-1.5,2.7-3.8,2.7h-2.5V89.9z M341.3,80.7l-3.5-9.8
				c-0.6-1.7-1.3-4.5-1.3-4.5h-0.1c0,0-0.6,2.8-1.2,4.5l-3.5,9.8H341.3z"/>
		</g>
		<path class="st0" d="M212.4,93.2c0,1.1-0.9,2-2,2c-1.1,0-2-0.9-2-2c0-1.1,0.9-2,2-2C211.5,91.2,212.4,92.1,212.4,93.2z"/>
	</g>
	<rect x="354.6" y="76.4" class="st0" width="117.3" height="3.8"/>
	<g>
		<path class="st0" d="M103.9,106.7c-1-0.4-1.9,0.8-1.2,1.7c13.5,16.6,17.8,39.8,9.3,61.1l0,0c-0.2,0.6-0.4,1.2-0.6,1.8
			c-2.2,8.2,2.8,16.7,11.2,18.7c7.9,1.9,16.2-3.4,18.3-11.3C148.6,148.4,132.3,117.6,103.9,106.7z"/>
		<path class="st0" d="M71.3,47.4c-3.1,0-5.7,2.5-5.7,5.7c0,3.1,2.5,5.7,5.7,5.7c3.1,0,5.7-2.5,5.7-5.7C77,50,74.5,47.4,71.3,47.4z"
			/>
		<path class="st0" d="M88.4,34.5c1.9-5.4,2.9-11.2,2.9-17.2c0-1.2,0-2.4-0.1-3.5c0-0.5-0.7-0.6-0.9-0.2
			c-4.7,7.1-10.1,7.1-13.1,18.3C81.1,32.3,84.8,33.2,88.4,34.5z"/>
		<path class="st0" d="M38,123.1c-0.9-0.5-1.9,0.4-1.5,1.3c6.1,13.9,7,30.1,1.3,45.5l0,0c-0.8,2.1-1.1,4.5-0.9,7
			c0.9,7.5,7.4,13.4,14.9,13.5c8.5,0.1,15.3-6.7,15.3-15.2C67.3,153.1,55.6,133.7,38,123.1z"/>
		<path class="st0" d="M34.1,124.9c-0.4-1-1.9-0.9-2.2,0.2c-3.2,14.7-11.9,28.3-25.3,37.4l0,0c-1.9,1.3-3.5,3-4.8,5.2
			c-3.7,6.6-1.8,15.2,4.3,19.6c6.8,5,16.4,3.5,21.3-3.4C40.3,166.1,42,143.7,34.1,124.9z"/>
		<path class="st0" d="M70.5,83.2c-1.3-0.6-2.5,0.9-1.6,2c12.4,17,15.5,40,6.3,60.6l0,0c-0.3,0.6-0.5,1.1-0.7,1.7
			c-2.5,8.1,2.2,16.8,10.5,19.1c7.8,2.2,16.4-2.8,18.7-10.6C112.5,126.6,97.9,95.6,70.5,83.2z"/>
		<path class="st0" d="M156.7,135.6c-1.6-1.4-2-3.6-1.3-5.4l0,0c1-2.6,1.4-5.6,0.7-8.7c-1.3-5.9-6.3-10.5-12.3-11.3
			c-6.9-0.9-12.9,2.9-15.5,8.7c2.1,2.2,4,4.5,5.8,6.9c4.4-0.9,9.2,0.8,11.9,4.8c0.6,0.8,1,1.7,1.3,2.6l0,0c0.6,1.9,1.9,3.5,3.8,4.6
			c2.9,1.7,6.3,1.4,8.9-0.3c0.3-0.2,0.1-0.6-0.2-0.6C158.6,136.8,157.6,136.4,156.7,135.6z"/>
		<path class="st0" d="M92.1,95.2c1.5,1.6,2.8,3.2,4.1,4.9c8.1-6.2,10.8-17.4,5.9-26.6c0-0.1-0.1-0.1-0.1-0.2
			c-3.4-6.4-5.7-13.5-6.6-21c0-0.3-0.5-0.3-0.5,0c-0.3,7,0.6,14.1,2.8,21.2c0,0.1,0.1,0.2,0.1,0.3C100.2,81.7,97.7,89.9,92.1,95.2z"
			/>
		<path class="st0" d="M64.5,31.8L64.5,31.8c3.6-0.4,6.3-3.5,6.3-7.2v-23C35,1.7,5.9,30.8,5.9,66.7c0,18.5,7.7,35.2,20.1,47
			c0.6,0.6,1.5-0.2,1-0.9c-5.5-8.3-8.7-18.2-8.7-28.9c0-22.8,14.6-42.2,34.9-49.4c-3.4-9.4-2-15.2-2.4-20.5c0-0.6,0.7-0.9,1.1-0.5
			C57.4,18.5,61.7,24.8,64.5,31.8z"/>
		<path class="st0" d="M50.4,62.4c0.7-3.4,2.3-6.3,4.5-8.6c0.5-0.5-0.1-1.3-0.8-1c-4.7,2.3-8.1,6.8-8.6,12.2
			c-0.6,6.7,3.5,12.8,9.6,15.4c0.5,0.2,0.9-0.4,0.5-0.8C51.2,75.6,49,69,50.4,62.4z"/>
	</g>
	<g>
		<path class="st0" d="M195,102.1c7.7,0,11.5,4,11.5,4l-2.6,3.3c0,0-3.5-3.1-8.8-3.1c-6.4,0-11.6,5.2-11.6,12.3
			c0,7.5,5.2,12.5,11.7,12.5c5.8,0,9.2-4,9.2-4V124c0-0.6-0.4-1-1-1h-2V119h4.3c2.1,0,2.9,0.9,2.9,2.9v13h-4v-2c0-0.7,0-1.4,0-1.4
			h-0.1c0,0-3.6,3.9-10.1,3.9c-8.6,0-15.7-6.8-15.7-16.8C178.7,109.4,185.8,102.1,195,102.1z"/>
		<path class="st0" d="M215.2,106.6h-3v-3.9h19c2.1,0,2.9,0.9,2.9,2.9v4.1H230v-2.1c0-0.7-0.4-1-1-1h-9.2v10.1h11.3v3.9h-11.3v9.4
			c0,0.6,0.4,1,1,1h9.4c0.6,0,1-0.4,1-1V128h4.2v4.1c0,2.1-0.9,2.9-2.9,2.9h-14.4c-2.1,0-2.9-0.9-2.9-2.9V106.6z"/>
		<path class="st0" d="M238.2,131h2c0.6,0,1-0.4,1-1v-27.3h4.2l14.4,20.4c1.2,1.7,2.7,4.4,2.7,4.4h0.1c0,0-0.3-2.6-0.3-4.4v-17.5
			c0-2.1,0.9-2.9,3-2.9h4.6v3.9h-2c-0.6,0-1,0.3-1,1V135h-4.1l-14.4-20.4c-1.2-1.7-2.7-4.4-2.7-4.4h-0.1c0,0,0.3,2.6,0.3,4.4V132
			c0,2.1-0.9,2.9-2.9,2.9h-4.6V131z"/>
		<path class="st0" d="M276.2,106.6h-3v-3.9h19c2.1,0,2.9,0.9,2.9,2.9v4.1H291v-2.1c0-0.7-0.4-1-1-1h-9.2v10.1h11.3v3.9h-11.3v9.4
			c0,0.6,0.4,1,1,1h9.4c0.6,0,1-0.4,1-1V128h4.2v4.1c0,2.1-0.9,2.9-2.9,2.9h-14.4c-2.1,0-2.9-0.9-2.9-2.9V106.6z"/>
		<path class="st0" d="M302.2,106.6h-3v-3.9h14.1c5.7,0,9.6,3.6,9.6,9.5c0,5.4-3.5,8-5.8,8.6v0.1c0,0,0.8,0.4,1.4,1.5l3.9,7.7
			c0.5,1,1.2,1.1,2.3,1.1h0.6v3.9H323c-2.5,0-3.4-0.3-4.5-2.4l-4.4-8.7c-0.8-1.5-1.4-1.7-3.2-1.7h-4.2V135h-4.6V106.6z M312.7,118.2
			c3.5,0,5.5-2.2,5.5-5.9c0-3.6-2.1-5.7-5.4-5.7h-6v11.6H312.7z"/>
		<path class="st0" d="M326.7,131h0.6c0.8,0,1.2-0.2,1.5-1l10.1-27.3h4.8l10.1,27.3c0.3,0.8,0.7,1,1.5,1h0.7v3.9h-2.6
			c-2.3,0-3-0.5-3.7-2.7l-2.4-6.6h-11.9l-2.4,6.6c-0.8,2.1-1.5,2.7-3.8,2.7h-2.5V131z M346.1,121.9l-3.5-9.8
			c-0.6-1.7-1.3-4.5-1.3-4.5h-0.1c0,0-0.6,2.8-1.2,4.5l-3.5,9.8H346.1z"/>
		<path class="st0" d="M373.7,102.1c4.3,0,12.1,1.8,12.1,7v3.2h-4.2v-1.8c0-2.7-4.6-4.1-7.8-4.1c-6.5,0-11.5,4.9-11.5,12.2
			c0,7,5.1,12.7,11.7,12.7c6.4,0,10.2-4.4,10.2-4.4l2.5,3.3c0,0-4.6,5.4-12.7,5.4c-9.6,0-16.4-7.5-16.4-17
			C357.5,109.2,364.5,102.1,373.7,102.1z"/>
		<path class="st0" d="M389.9,131h3.2v-24.4h-3.2v-3.9h10.7v3.9h-3.2V131h3.2v3.9h-10.7V131z"/>
		<path class="st0" d="M420.6,102.1c9.3,0,16.6,7.2,16.6,16.5c0,9.5-7.3,16.9-16.6,16.9c-9.3,0-16.5-7.4-16.5-16.9
			C404.1,109.3,411.3,102.1,420.6,102.1z M420.6,131.2c6.5,0,11.8-5.5,11.8-12.6c0-6.9-5.3-12.2-11.8-12.2
			c-6.5,0-11.8,5.3-11.8,12.2C408.8,125.7,414.1,131.2,420.6,131.2z M422.1,94.7h4.5l-4.3,5.8h-3.5L422.1,94.7z"/>
		<path class="st0" d="M440.5,131h2c0.6,0,1-0.4,1-1v-27.3h4.2l14.4,20.4c1.2,1.7,2.7,4.4,2.7,4.4h0.1c0,0-0.3-2.6-0.3-4.4v-17.5
			c0-2.1,0.9-2.9,3-2.9h4.6v3.9h-2c-0.6,0-1,0.3-1,1V135h-4.1l-14.4-20.4c-1.2-1.7-2.7-4.4-2.7-4.4h-0.1c0,0,0.3,2.6,0.3,4.4V132
			c0,2.1-0.9,2.9-2.9,2.9h-4.6V131z"/>
	</g>
</g>
</svg>
